<?xml version="1.0" encoding="utf-8"?>
<!-- Generator: Adobe Illustrator 19.2.0, SVG Export Plug-In . SVG Version: 6.00 Build 0)  -->
<svg version="1.1" id="Layer_1" xmlns="http://www.w3.org/2000/svg" xmlns:xlink="http://www.w3.org/1999/xlink" x="0px" y="0px"
	 viewBox="0 0 548.1 43.8" style="enable-background:new 0 0 548.1 43.8;" xml:space="preserve">
<style type="text/css">
	.st0{fill:#FFFFFF;}
	.st1{fill:#DEB408;}
	.st2{fill:#003A63;}
</style>
<g>
	<g>
		<path class="st0" d="M47.7,13.5c-5.1-7-9.8-10-14.1-8.9l0,0c-5-8-24.1-1.9-27.7-0.6c0,0-1.6,2.8-5.9,6.5l7.8,32.7
			c15-8,34.6-10,45.3-7.3c6.5,1.6,11.1,3.4,15.4,8.5l0.5-0.5C69.1,43.9,51.7,19.2,47.7,13.5z"/>
		<path class="st1" d="M47.7,13.5c-5.1-7-9.8-10-14.1-8.9l0,0c-5-8-24.1-1.9-27.7-0.6c0,0-1.6,2.8-5.9,6.5l7.8,32.7
			c15-8,34.6-10,45.3-7.3c6.5,1.6,11.1,3.4,15.4,8.5l0.5-0.5C69.1,43.9,51.7,19.2,47.7,13.5z M37.4,13.9c-7.1-3-20.7,0.6-27.3,2.7
			l-0.8-2.5C15.7,12,29.4,8.7,37.4,13.9z M9,13.4l-0.8-2.5c5.6-1.8,21-5.8,28.2,0.4C28.9,7.3,12.5,12.3,9,13.4z M37.9,16.6
			c-8.1-2.3-22.4,1.8-26.8,3.2l-0.8-2.5C22.1,13.7,31.5,13.4,37.9,16.6z M38.5,19.3c-8.7-1.7-22.7,2.5-26.4,3.6l-0.8-2.5
			C22.7,16.9,31.6,16.6,38.5,19.3z M38.9,22.1c-9.1-1-22.6,3-25.7,3.9l-0.8-2.5C20.2,21.2,29.9,19.2,38.9,22.1z M39.4,25.1
			c-9.2-0.6-22.1,3.2-25.2,4.2l-0.8-2.5C22.7,24,31,22.7,39.4,25.1z M39.4,28.1C32.5,28.1,24,30,19,31.3c-0.6,0.2-1.1,0.3-1.7,0.5
			c-0.9,0.3-1.6,0.5-2.1,0.6l-0.8-2.5C23.3,27.2,30.9,26,39.4,28.1z M50.5,32.6l-1.3-2.2c2.7-1,4.9,0.1,7.7,1.8
			C54.9,31.5,52.7,31.5,50.5,32.6z M48.8,29.8l-1.3-2.1c2.5-1.1,5-0.2,7.6,1.5C53.1,28.5,51.2,28.6,48.8,29.8z M47.2,27.1l-1.4-2.3
			c2.9-1,5.3,0,8,2C51.6,25.8,49.8,25.8,47.2,27.1z M45.4,24.2L44.1,22c2.6-0.9,5.3,0.1,7.9,2C50,23.2,47.8,23.1,45.4,24.2z
			 M43.7,21.5l-1.4-2.3c2.8-0.9,5.7,0.3,8.4,2.4C48.6,20.5,46.3,20.3,43.7,21.5z M42,18.6l-1.3-2.2c0.1,0,0.3-0.1,0.4-0.1
			c3.1-0.9,5.5,0.6,8.4,3.3C46.9,17.8,44.9,17.4,42,18.6z M48.1,17.3c-2.5-1.8-4.4-2.7-7.3-1.7c-0.2,0.1-0.3,0.1-0.5,0.2L39,13.6
			C42.5,12.3,45.1,14.3,48.1,17.3z M38.7,13L38.7,13L38.7,13l-1.4-2.2h0c3.4-1,6.2,0.8,9.1,3.7C43.9,12.6,41.6,11.9,38.7,13z
			 M45,12.1c-2.6-2-5.1-2.9-8.1-1.9h0L35.6,8h0C39.2,7.2,42.1,9,45,12.1z M34,5.2c0.7-0.1,1.4-0.2,2-0.1c1.3,0.1,2.7,0.6,4.1,1.5
			c1.1,0.8,2.3,1.7,3.4,2.9c-2.9-2.3-5.6-3-8.2-2.2l0,0L34,5.2L34,5.2z M34.8,8.4C27.7,4.2,11.9,9,8,10.3L7.2,7.8
			C12.2,6.2,28.5,1.4,34.8,8.4z M8.8,3.8L8.8,3.8L8.8,3.8C8.8,3.8,8.8,3.8,8.8,3.8C8.8,3.8,8.8,3.8,8.8,3.8
			c6.5-1.9,20.5-5.1,24.3,1.3c0,0,0,0,0,0l0.3,0.5C26.6,1,10.8,5.8,7,7.1L6.2,4.6C6.7,4.4,7.6,4.1,8.8,3.8L8.8,3.8z M15.4,33
			c9.3-2.8,15.9-3.7,22.8-2.5c-7.4,0.4-16.2,2.7-22.1,4.8L15.4,33z"/>
	</g>
	<path class="st2" d="M86.6,34.1h-13V6.9h12.6c5.6,0,9,2.8,9,7V14c0,3.1-1.6,4.8-3.6,5.9c3.2,1.2,5.1,3,5.1,6.7v0.1
		C96.8,31.6,92.7,34.1,86.6,34.1z M89.3,15c0-1.8-1.4-2.8-3.9-2.8h-5.9v5.8H85C87.6,17.9,89.3,17.1,89.3,15L89.3,15z M90.8,25.9
		c0-1.8-1.4-3-4.4-3h-6.9v6h7.1C89.2,28.9,90.8,28,90.8,25.9L90.8,25.9z"/>
	<path class="st2" d="M101,34.1V6.9h6v27.2H101z"/>
	<path class="st2" d="M125.7,34.1h-13V6.9h12.6c5.6,0,9,2.8,9,7V14c0,3.1-1.6,4.8-3.6,5.9c3.2,1.2,5.1,3,5.1,6.7v0.1
		C135.8,31.6,131.8,34.1,125.7,34.1z M128.4,15c0-1.8-1.4-2.8-3.9-2.8h-5.9v5.8h5.5C126.7,17.9,128.4,17.1,128.4,15L128.4,15z
		 M129.9,25.9c0-1.8-1.4-3-4.4-3h-6.9v6h7.1C128.3,28.9,129.9,28,129.9,25.9L129.9,25.9z"/>
	<path class="st2" d="M140.3,34.1V6.9h6v21.8h13.6v5.4H140.3z"/>
	<path class="st2" d="M164.3,34.1V6.9h20.5v5.3h-14.6v5.5h12.8v5.3h-12.8v5.7H185v5.3H164.3z"/>
	<path class="st2" d="M201,34.5c-4.1,0-8.3-1.4-11.6-4.4l3.5-4.2c2.5,2,5,3.3,8.1,3.3c2.4,0,3.9-1,3.9-2.6v-0.1
		c0-1.5-0.9-2.3-5.5-3.5c-5.5-1.4-9-2.9-9-8.3v-0.1c0-4.9,4-8.2,9.5-8.2c4,0,7.4,1.2,10.1,3.5l-3.1,4.5c-2.4-1.7-4.8-2.7-7.1-2.7
		c-2.3,0-3.5,1.1-3.5,2.4v0.1c0,1.8,1.2,2.4,5.9,3.6c5.5,1.4,8.6,3.4,8.6,8.2v0.1C211,31.5,206.9,34.5,201,34.5z"/>
	<g>
		<path class="st2" d="M215,31.2c0-0.7,0.5-1.4,1.2-1.4c0.7,0,1,0.5,1,1c0,0.3-0.1,0.7-0.3,0.9c0.8,0,1.2-0.6,2-4.3l1.8-8.6h-2.4
			l0.3-1.1h2.3c0.9-4.2,2.8-6.1,5.1-6.1c1.6,0,2.4,0.9,2.4,1.8c0,0.9-0.6,1.7-1.4,1.7c-0.6,0-1-0.4-1-1c0-0.5,0.2-1,0.6-1.3
			c-0.1-0.1-0.4-0.2-0.7-0.2c-1.7,0-2.4,1.6-2.9,4.3l-0.2,0.8h3.1l-0.3,1.1h-3l-1.7,7.9c-0.9,4.4-2.6,5.8-4.3,5.8
			C215.5,32.5,215,31.9,215,31.2z"/>
		<path class="st2" d="M235.3,21.9c0,3.7-2.7,6.9-5.9,6.9c-2.6,0-4-1.9-4-4.5c0-3.7,2.7-6.9,5.9-6.9
			C233.9,17.4,235.3,19.3,235.3,21.9z M231.3,18.3c-2.5,0-3.9,4-3.9,6.7c0,1.9,0.9,2.7,2.1,2.7c2.5,0,3.9-4,3.9-6.7
			C233.4,19.2,232.5,18.3,231.3,18.3z"/>
		<path class="st2" d="M244.7,17.4c-1.5,0-2.7,1.9-4.1,5l-0.2-0.1c0.3-0.9,0.5-2,0.5-2.9c0-1.3-0.6-2-1.5-2c-1,0-1.9,0.8-2.7,2.2
			l0.9,0.4l0,0l0,0c0,0,0.4-0.7,0.8-1.1c0,0,0.1-0.1,0.1-0.1c0,0,0.1,0,0.1,0c0.1,0,0.1-0.1,0.2-0.1c0,0,0,0,0.1,0c0,0,0.1,0,0.1,0
			c0.5,0,0.7,0.4,0.2,2.2l-2.1,7.7h2c1.6-5.9,3.7-9,4.7-9.4c-0.1,0.9,0.4,1.4,1,1.4c0.7,0,1.3-0.8,1.3-1.7
			C246.1,17.9,245.5,17.4,244.7,17.4z"/>
	</g>
	<g>
		<path class="st2" d="M250.1,6.9h5.5l12.7,16.7V6.9h5.9v27.2h-5.1L256,16.8v17.3h-5.9V6.9z"/>
		<path class="st2" d="M280.1,6.9h20.5v5.3H286v5.5h12.8v5.3H286v5.7h14.8v5.3h-20.7V6.9z"/>
		<path class="st2" d="M303.3,6.9h6.4l5.6,18.4l6.1-18.5h5.1l6.1,18.5l5.6-18.4h6.3l-9.3,27.4h-5.2l-6.1-17.8l-6.1,17.8h-5.2
			L303.3,6.9z"/>
		<g>
			<path class="st2" d="M355.2,29.6l15-17.4h-14.5V6.9h22.2v4.5l-15,17.4h15v5.2h-22.6V29.6z"/>
			<path class="st2" d="M382.8,6.9h20.5v5.3h-14.6v5.5h12.8v5.3h-12.8v5.7h14.8v5.3h-20.7V6.9z"/>
			<path class="st2" d="M418.2,6.7h5.5l11.7,27.4h-6.3l-2.5-6.1h-11.5l-2.5,6.1h-6.1L418.2,6.7z M424.5,22.8l-3.6-8.8l-3.6,8.8
				H424.5z"/>
			<path class="st2" d="M438.5,6.9h6v21.8H458v5.4h-19.5V6.9z"/>
			<path class="st2" d="M472.8,6.7h5.5l11.7,27.4h-6.3l-2.5-6.1h-11.5l-2.5,6.1h-6.1L472.8,6.7z M479.1,22.8l-3.6-8.8l-3.6,8.8
				H479.1z"/>
			<path class="st2" d="M493,6.9h5.5l12.7,16.7V6.9h5.9v27.2h-5.1l-13.2-17.3v17.3H493V6.9z"/>
			<path class="st2" d="M523,6.9h10.6c2.1,0,4.1,0.3,5.9,1c1.8,0.7,3.3,1.6,4.6,2.9c1.3,1.2,2.3,2.6,3,4.3c0.7,1.6,1.1,3.4,1.1,5.3
				v0.1c0,1.9-0.4,3.7-1.1,5.4c-0.7,1.7-1.7,3.1-3,4.3c-1.3,1.2-2.8,2.2-4.6,2.9c-1.8,0.7-3.7,1-5.9,1H523V6.9z M533.6,28.7
				c1.2,0,2.3-0.2,3.3-0.6c1-0.4,1.9-0.9,2.6-1.7c0.7-0.7,1.3-1.6,1.7-2.6c0.4-1,0.6-2.1,0.6-3.3v-0.1c0-1.2-0.2-2.3-0.6-3.3
				c-0.4-1-0.9-1.9-1.7-2.6c-0.7-0.7-1.6-1.3-2.6-1.7c-1-0.4-2.1-0.6-3.3-0.6H529v16.4H533.6z"/>
		</g>
	</g>
</g>
</svg>
