<?xml version="1.0" encoding="utf-8"?>
<!-- Generator: Adobe Illustrator 19.2.0, SVG Export Plug-In . SVG Version: 6.00 Build 0)  -->
<svg version="1.1" id="Layer_1" xmlns="http://www.w3.org/2000/svg" xmlns:xlink="http://www.w3.org/1999/xlink" x="0px" y="0px"
	 viewBox="0 0 396.8 69.7" style="enable-background:new 0 0 396.8 69.7;" xml:space="preserve">
<style type="text/css">
	.st0{fill:#FFFFFF;}
	.st1{fill:#DEB408;}
	.st2{fill:#003A63;}
</style>
<path class="st0" d="M76,21C67.9,9.9,60.4,5.1,53.5,6.9l0,0c-8-12.7-38.4-3-44.1-1c0,0-2.5,4.4-9.4,10.4l12.5,52.1
	c23.9-12.7,55.1-15.9,72.2-11.7c10.3,2.5,17.7,5.4,24.5,13.5l0.8-0.8C110,69.4,82.3,30.1,76,21z"/>
<path class="st1" d="M76,21C67.9,9.9,60.4,5.1,53.5,6.9l0,0c-8-12.7-38.4-3-44.1-1c0,0-2.5,4.4-9.4,10.4l12.5,52.1
	c23.9-12.7,55.1-15.9,72.2-11.7c10.3,2.5,17.7,5.4,24.5,13.5l0.8-0.8C110,69.4,82.3,30.1,76,21z M59.5,21.8C48.2,17,26.6,22.7,16,26
	l-1.3-4C25,18.7,46.8,13.4,59.5,21.8z M14.4,21l-1.3-4c9-2.8,33.5-9.3,44.8,0.6C46,11.2,19.9,19.2,14.4,21z M60.4,25.9
	c-12.9-3.7-35.6,2.9-42.7,5.1l-1.3-4C35.1,21.3,50.2,20.9,60.4,25.9z M61.3,30.3c-13.8-2.7-36.2,3.9-42,5.8L18,32
	C36.1,26.5,50.4,25.9,61.3,30.3z M61.9,34.8c-14.4-1.7-35.9,4.7-41,6.3l-1.3-4C32.2,33.3,47.5,30.1,61.9,34.8z M62.7,39.5
	c-14.7-0.9-35.2,5.1-40.1,6.6l-1.3-4C36.1,37.7,49.4,35.7,62.7,39.5z M62.7,44.3c-11-0.1-24.5,3-32.5,5.1c-0.9,0.2-1.8,0.5-2.7,0.7
	c-1.4,0.4-2.6,0.7-3.3,1l-1.3-4C37.1,42.8,49.2,41,62.7,44.3z M80.4,51.5L78.2,48c4.4-1.6,7.9,0.1,12.3,2.8
	C87.4,49.8,84,49.8,80.4,51.5z M77.7,47l-2-3.4c4-1.7,8-0.3,12.1,2.4C84.6,44.9,81.4,45,77.7,47z M75.1,42.7L72.9,39
	c4.6-1.7,8.4,0,12.7,3.3C82.1,40.7,79.3,40.6,75.1,42.7z M72.3,38.1l-2.1-3.5c4.1-1.5,8.5,0.1,12.7,3.1
	C79.6,36.4,76.1,36.3,72.3,38.1z M69.7,33.7l-2.2-3.6c4.4-1.5,9.1,0.5,13.3,3.8C77.3,32.2,73.7,31.9,69.7,33.7z M66.9,29.2l-2.2-3.6
	c0.2-0.1,0.4-0.2,0.6-0.2c4.8-1.5,8.8,1,13.3,5.2C74.7,27.9,71.5,27.2,66.9,29.2z M76.6,27.1c-4-2.9-7-4.2-11.6-2.7
	c-0.3,0.1-0.6,0.2-0.8,0.3l-2.1-3.5C67.6,19.2,71.8,22.3,76.6,27.1z M61.6,20.2L61.6,20.2L61.6,20.2l-2.2-3.5l0,0
	c5.5-1.7,9.9,1.2,14.5,5.8C69.9,19.6,66.2,18.4,61.6,20.2z M71.7,18.8c-4.1-3.1-8.1-4.6-12.9-3l0,0l-2.1-3.5l0,0
	C62.5,11,67.1,14,71.7,18.8z M54.1,7.9c1.1-0.2,2.2-0.3,3.2-0.2c2.1,0.2,4.3,1,6.6,2.5c1.8,1.2,3.6,2.8,5.4,4.7
	c-4.6-3.6-9-4.7-13.1-3.4l0,0L54.1,7.9L54.1,7.9z M55.5,13c-11.4-6.7-36.6,1-42.7,3l-1.3-4C19.4,9.4,45.4,1.7,55.5,13z M14,5.6
	C14,5.6,14,5.6,14,5.6L14,5.6C14,5.6,14,5.6,14,5.6c0.1,0,0.1,0,0.1,0c10.3-3,32.5-8,38.6,2.1c0,0,0,0,0,0l0.5,0.8
	c-10.8-7.3-36,0.3-42.1,2.4l-1.3-4C10.7,6.6,12.1,6.1,14,5.6L14,5.6z M24.5,52.2c14.8-4.5,25.4-5.9,36.3-3.9
	c-11.8,0.6-25.7,4.3-35.1,7.6L24.5,52.2z"/>
<path class="st2" d="M116.5,27.1h-12.4v-26h12.1c5.3,0,8.6,2.6,8.6,6.7v0.1c0,2.9-1.6,4.6-3.4,5.6c3,1.2,4.9,2.9,4.9,6.4V20
	C126.2,24.7,122.3,27.1,116.5,27.1z M119.1,8.8c0-1.7-1.3-2.7-3.8-2.7h-5.7v5.5h5.3C117.5,11.6,119.1,10.8,119.1,8.8L119.1,8.8z
	 M120.5,19.2c0-1.7-1.3-2.8-4.2-2.8h-6.6v5.7h6.8C119,22.1,120.5,21.2,120.5,19.2L120.5,19.2z"/>
<path class="st2" d="M130.2,27.1v-26h5.7v26H130.2z"/>
<path class="st2" d="M153.8,27.1h-12.4v-26h12.1c5.3,0,8.6,2.6,8.6,6.7v0.1c0,2.9-1.6,4.6-3.4,5.6c3,1.2,4.9,2.9,4.9,6.4V20
	C163.6,24.7,159.7,27.1,153.8,27.1z M156.4,8.8c0-1.7-1.3-2.7-3.8-2.7H147v5.5h5.3C154.8,11.6,156.4,10.8,156.4,8.8L156.4,8.8z
	 M157.9,19.2c0-1.7-1.3-2.8-4.2-2.8H147v5.7h6.8C156.3,22.1,157.9,21.2,157.9,19.2L157.9,19.2z"/>
<path class="st2" d="M167.8,27.1v-26h5.7v20.8h13v5.2H167.8z"/>
<path class="st2" d="M190.8,27.1v-26h19.7v5.1h-14v5.3h12.3v5.1h-12.3V22h14.1v5.1H190.8z"/>
<path class="st2" d="M225.9,27.5c-4,0-7.9-1.4-11.1-4.2l3.4-4.1c2.3,1.9,4.8,3.2,7.8,3.2c2.3,0,3.8-0.9,3.8-2.5v-0.1
	c0-1.5-0.9-2.2-5.3-3.3c-5.2-1.3-8.6-2.8-8.6-8V8.5c0-4.7,3.8-7.8,9.1-7.8c3.8,0,7,1.2,9.7,3.3l-3,4.3c-2.3-1.6-4.6-2.6-6.8-2.6
	c-2.2,0-3.3,1-3.3,2.3v0.1c0,1.7,1.1,2.3,5.6,3.4c5.3,1.4,8.3,3.3,8.3,7.8v0.1C235.5,24.6,231.5,27.5,225.9,27.5z"/>
<g>
	<path class="st2" d="M239.2,24.3c0-0.7,0.5-1.3,1.2-1.3c0.6,0,0.9,0.5,0.9,0.9c0,0.3-0.1,0.7-0.3,0.9c0.8,0,1.2-0.6,1.9-4.1
		l1.7-8.2h-2.3l0.3-1h2.2c0.8-4,2.6-5.8,4.8-5.8c1.6,0,2.3,0.8,2.3,1.7c0,0.9-0.6,1.7-1.3,1.7c-0.6,0-1-0.4-1-1c0-0.4,0.2-1,0.6-1.3
		c-0.1-0.1-0.4-0.2-0.7-0.2c-1.6,0-2.2,1.5-2.8,4.1l-0.2,0.8h3l-0.3,1h-2.9l-1.6,7.5c-0.9,4.2-2.5,5.6-4.1,5.6
		C239.7,25.5,239.2,24.9,239.2,24.3z"/>
	<path class="st2" d="M258.7,15.4c0,3.5-2.6,6.6-5.6,6.6c-2.5,0-3.9-1.8-3.9-4.3c0-3.5,2.6-6.6,5.6-6.6
		C257.3,11.1,258.7,12.9,258.7,15.4z M254.8,12c-2.4,0-3.8,3.9-3.8,6.4c0,1.8,0.8,2.6,2,2.6c2.4,0,3.8-3.8,3.8-6.4
		C256.9,12.8,256,12,254.8,12z"/>
	<path class="st2" d="M267.7,11.1c-1.4,0-2.5,1.8-4,4.8l-0.2-0.1c0.3-0.9,0.5-1.9,0.5-2.7c0-1.2-0.5-1.9-1.5-1.9
		c-1,0-1.8,0.8-2.5,2.1l0.8,0.4c0,0,0,0,0,0l0,0c0,0,0.4-0.6,0.8-1c0,0,0.1-0.1,0.1-0.1c0,0,0,0,0.1,0c0.1,0,0.1-0.1,0.2-0.1
		c0,0,0,0,0.1,0c0,0,0.1,0,0.1,0c0.4,0,0.7,0.4,0.2,2.1l-2,7.3h1.9c1.5-5.7,3.5-8.6,4.5-9c-0.1,0.8,0.3,1.3,1,1.3
		c0.7,0,1.3-0.7,1.3-1.7C269,11.6,268.5,11.1,267.7,11.1z"/>
</g>
<path class="st2" d="M115.6,34.6h5.2l12,15.8V34.6h5.6v25.7h-4.8l-12.4-16.3v16.3h-5.6V34.6z"/>
<path class="st2" d="M143.9,34.6h19.3v5h-13.7v5.2h12.1v5h-12.1v5.4h13.9v5h-19.5V34.6z"/>
<path class="st2" d="M165.8,34.6h6l5.3,17.4l5.8-17.5h4.8l5.8,17.5l5.3-17.4h5.9L196,60.4h-4.9l-5.8-16.8l-5.8,16.8h-4.9L165.8,34.6
	z"/>
<g>
	<path class="st2" d="M214.8,55.9L229,39.5h-13.7v-4.9h20.9v4.3l-14.1,16.4h14.1v4.9h-21.4V55.9z"/>
	<path class="st2" d="M240.9,34.6h19.3v5h-13.7v5.2h12.1v5h-12.1v5.4h13.9v5h-19.5V34.6z"/>
	<path class="st2" d="M274.3,34.4h5.2l11,25.8h-5.9l-2.3-5.8h-10.9l-2.3,5.8h-5.8L274.3,34.4z M280.2,49.5l-3.4-8.3l-3.4,8.3H280.2z
		"/>
	<path class="st2" d="M293.4,34.6h5.6v20.5h12.8v5.1h-18.4V34.6z"/>
	<path class="st2" d="M325.8,34.4h5.2l11,25.8h-5.9l-2.3-5.8h-10.9l-2.4,5.8h-5.8L325.8,34.4z M331.7,49.5l-3.4-8.3l-3.4,8.3H331.7z
		"/>
	<path class="st2" d="M344.9,34.6h5.2l12,15.8V34.6h5.6v25.7h-4.8l-12.4-16.3v16.3h-5.6V34.6z"/>
	<path class="st2" d="M373.2,34.6h10c2,0,3.9,0.3,5.5,1c1.7,0.6,3.1,1.5,4.3,2.7c1.2,1.2,2.1,2.5,2.8,4.1c0.7,1.6,1,3.2,1,5v0.1
		c0,1.8-0.3,3.5-1,5.1c-0.7,1.6-1.6,2.9-2.8,4.1c-1.2,1.2-2.6,2.1-4.3,2.7c-1.7,0.7-3.5,1-5.5,1h-10V34.6z M383.2,55.1
		c1.2,0,2.2-0.2,3.2-0.5c1-0.4,1.8-0.9,2.5-1.6c0.7-0.7,1.2-1.5,1.6-2.4c0.4-0.9,0.5-2,0.5-3.1v-0.1c0-1.1-0.2-2.2-0.5-3.1
		c-0.4-0.9-0.9-1.8-1.6-2.4c-0.7-0.7-1.5-1.2-2.5-1.6c-1-0.4-2-0.6-3.2-0.6h-4.4v15.5H383.2z"/>
</g>
</svg>
