<?xml version="1.0" encoding="UTF-8" standalone="no"?>
<!-- Generator: Adobe Illustrator 14.0.0, SVG Export Plug-In . SVG Version: 6.00 Build 43363)  -->

<svg
   xmlns:dc="http://purl.org/dc/elements/1.1/"
   xmlns:cc="http://creativecommons.org/ns#"
   xmlns:rdf="http://www.w3.org/1999/02/22-rdf-syntax-ns#"
   xmlns:svg="http://www.w3.org/2000/svg"
   xmlns="http://www.w3.org/2000/svg"
   xmlns:sodipodi="http://sodipodi.sourceforge.net/DTD/sodipodi-0.dtd"
   xmlns:inkscape="http://www.inkscape.org/namespaces/inkscape"
   version="1.1"
   id="Layer_1"
   x="0px"
   y="0px"
   width="110px"
   height="105px"
   viewBox="0 0 110 105"
   enable-background="new 0 0 110 105"
   xml:space="preserve"
   inkscape:version="0.91 r13725"
   sodipodi:docname="logo-large.svg"><metadata
     id="metadata47"><rdf:RDF><cc:Work
         rdf:about=""><dc:format>image/svg+xml</dc:format><dc:type
           rdf:resource="http://purl.org/dc/dcmitype/StillImage" /></cc:Work></rdf:RDF></metadata><defs
     id="defs45" /><sodipodi:namedview
     pagecolor="#ffffff"
     bordercolor="#666666"
     borderopacity="1"
     objecttolerance="10"
     gridtolerance="10"
     guidetolerance="10"
     inkscape:pageopacity="0"
     inkscape:pageshadow="2"
     inkscape:window-width="1599"
     inkscape:window-height="1700"
     id="namedview43"
     showgrid="false"
     inkscape:zoom="2.247619"
     inkscape:cx="17.396956"
     inkscape:cy="196.56388"
     inkscape:window-x="49"
     inkscape:window-y="24"
     inkscape:window-maximized="0"
     inkscape:current-layer="Layer_1" /><g
     id="g5"><path
       style="fill:#ffffff"
       inkscape:connector-curvature="0"
       id="path7"
       d="M 66.849,18.036 C 59.754,8.25 53.104,4.077 47.055,5.637 L 47.05,5.649 C 40.002,-5.522 13.233,3.027 8.226,4.749 c 0,0 -2.232,3.885 -8.226,9.136 l 10.979,45.852 c 21.014,-11.16 48.467,-13.953 63.496,-10.295 9.059,2.211 15.564,4.762 21.592,11.908 l 0.71,-0.743 c 0,-10e-4 -24.404,-34.585 -29.928,-42.571 z" /><path
       style="fill:#deb408"
       inkscape:connector-curvature="0"
       id="path9"
       d="M 66.849,18.036 C 59.754,8.25 53.104,4.077 47.055,5.637 L 47.05,5.649 C 40.002,-5.522 13.233,3.027 8.226,4.749 c 0,0 -2.232,3.885 -8.226,9.136 l 10.979,45.852 c 21.014,-11.16 48.467,-13.953 63.496,-10.295 9.059,2.211 15.564,4.762 21.592,11.908 l 0.71,-0.743 c 0,-10e-4 -24.404,-34.585 -29.928,-42.571 z M 52.377,18.691 C 42.414,14.547 23.435,19.513 14.105,22.43 l -1.15,-3.544 c 9.003,-2.845 28.186,-7.527 39.422,-0.195 z M 12.657,17.99 11.509,14.468 C 19.403,11.978 40.975,6.32 50.947,14.984 40.434,9.429 17.521,16.408 12.657,17.99 Z m 40.479,4.353 C 41.764,19.119 21.823,24.861 15.544,26.845 l -1.143,-3.516 c 16.511,-5.048 29.734,-5.361 38.735,-0.986 z m 0.815,3.859 C 41.785,23.853 22.088,29.654 16.983,31.269 l -1.15,-3.518 c 15.905,-4.862 28.476,-5.388 38.118,-1.549 z m 0.502,3.962 C 41.757,28.699 22.827,34.309 18.422,35.69 l -1.15,-3.519 c 11.071,-3.333 24.541,-6.097 37.181,-2.007 z m 0.672,4.102 C 42.192,33.468 24.147,38.782 19.863,40.115 L 18.718,36.6 c 13.07,-3.877 24.711,-5.64 36.407,-2.334 z m 0.042,4.249 c -9.709,-0.046 -21.531,2.646 -28.58,4.527 -0.789,0.206 -1.575,0.429 -2.39,0.656 -1.261,0.355 -2.239,0.644 -2.89,0.843 l -1.15,-3.527 c 12.48,-3.788 23.094,-5.407 35.01,-2.499 z m 15.55,6.344 -1.878,-3.105 c 3.852,-1.38 6.929,0.107 10.824,2.48 -2.769,-0.902 -5.768,-0.888 -8.946,0.625 z m -2.39,-3.948 -1.787,-2.966 c 3.545,-1.483 7.059,-0.299 10.67,2.109 -2.799,-0.981 -5.553,-0.895 -8.883,0.857 z m -2.274,-3.78 -1.954,-3.235 c 4.067,-1.472 7.361,-0.008 11.174,2.866 -3.038,-1.397 -5.543,-1.489 -9.22,0.369 z M 63.604,33.08 61.763,30.036 c 3.622,-1.273 7.448,0.099 11.143,2.757 -2.853,-1.194 -5.952,-1.34 -9.302,0.287 z m -2.329,-3.861 -1.921,-3.185 c 3.876,-1.303 7.973,0.464 11.718,3.379 -3.033,-1.513 -6.266,-1.825 -9.797,-0.194 z m -2.414,-4.005 -1.894,-3.139 c 0.182,-0.069 0.354,-0.142 0.536,-0.198 4.259,-1.321 7.712,0.91 11.696,4.594 -3.514,-2.327 -6.317,-2.968 -10.338,-1.257 z m 8.536,-1.802 C 63.918,20.838 61.202,19.7 57.219,20.997 c -0.246,0.079 -0.494,0.171 -0.739,0.272 l -1.854,-3.078 c 4.857,-1.775 8.55,0.963 12.771,5.221 z m -13.21,-6.051 0,0.003 -0.05,0.02 -1.871,-3.099 0.007,-0.003 c 4.797,-1.46 8.696,1.056 12.783,5.141 -3.547,-2.596 -6.781,-3.646 -10.869,-2.062 z m 8.915,-1.283 C 59.536,13.339 55.96,11.988 51.781,13.456 l -0.007,0.006 -1.85,-3.07 0.017,-0.005 c 5.034,-1.199 9.089,1.447 13.161,5.691 z M 47.603,6.486 c 0.965,-0.196 1.915,-0.279 2.84,-0.196 1.873,0.17 3.803,0.9 5.802,2.172 1.58,1.052 3.146,2.449 4.711,4.101 C 56.89,9.413 53.075,8.43 49.431,9.542 L 49.416,9.553 47.577,6.512 47.603,6.486 Z m 1.204,4.468 C 38.803,5.062 16.604,11.79 11.214,13.566 L 10.07,10.037 c 7,-2.247 29.904,-8.968 38.737,0.917 z M 12.277,4.458 c 0,-0.001 0.005,-0.001 0.017,-0.004 l 0.004,0 c 0.016,-0.006 0.038,-0.013 0.055,-0.018 0,0 0.012,-0.001 0.017,-0.003 9.019,-2.631 28.567,-7.074 33.996,1.864 0.006,0.003 0.006,0.012 0.012,0.017 l 0.449,0.743 C 37.287,0.591 15.157,7.355 9.78,9.143 L 8.626,5.602 C 9.4,5.338 10.668,4.929 12.276,4.46 l 0,-0.002 z m 9.321,40.98 C 34.594,41.492 43.92,40.282 53.558,41.973 43.176,42.49 30.904,45.8 22.651,48.687 l -1.053,-3.249 z" /></g><path
     style="fill:#003a63"
     inkscape:connector-curvature="0"
     id="path11"
     d="m 9.07,83.884 -7.722,0 0,-16.239 7.534,0 c 3.318,0 5.365,1.647 5.365,4.195 l 0,0.05 c 0,1.833 -0.98,2.854 -2.134,3.505 1.876,0.72 3.036,1.81 3.036,3.988 l 0,0.046 c 0,2.968 -2.414,4.455 -6.079,4.455 z m 1.624,-11.437 c 0,-1.068 -0.835,-1.669 -2.341,-1.669 l -3.53,0 0,3.433 3.294,0 c 1.581,0 2.577,-0.514 2.577,-1.718 l 0,-0.046 z m 0.908,6.493 c 0,-1.088 -0.821,-1.761 -2.647,-1.761 l -4.132,0 0,3.569 4.247,0 c 1.575,0 2.532,-0.553 2.532,-1.762 l 0,-0.046 z" /><path
     style="fill:#003a63"
     inkscape:connector-curvature="0"
     id="path13"
     d="m 17.644,83.884 0,-16.239 3.573,0 0,16.239 -3.573,0 z" /><path
     style="fill:#003a63"
     inkscape:connector-curvature="0"
     id="path15"
     d="m 32.375,83.884 -7.729,0 0,-16.239 7.533,0 c 3.326,0 5.366,1.647 5.366,4.195 l 0,0.05 c 0,1.833 -0.979,2.854 -2.134,3.505 1.877,0.72 3.037,1.81 3.037,3.988 l 0,0.046 c -10e-4,2.968 -2.414,4.455 -6.073,4.455 z m 1.617,-11.437 c 0,-1.068 -0.832,-1.669 -2.343,-1.669 l -3.523,0 0,3.433 3.295,0 c 1.577,0 2.571,-0.514 2.571,-1.718 l 0,-0.046 z m 0.909,6.493 c 0,-1.088 -0.815,-1.761 -2.643,-1.761 l -4.133,0 0,3.569 4.249,0 c 1.574,0 2.526,-0.553 2.526,-1.762 l 0,-0.046 z" /><path
     style="fill:#003a63"
     inkscape:connector-curvature="0"
     id="path17"
     d="m 41.095,83.884 0,-16.239 3.576,0 0,12.993 8.101,0 0,3.246 -11.677,0 z" /><path
     style="fill:#003a63"
     inkscape:connector-curvature="0"
     id="path19"
     d="m 55.41,83.884 0,-16.239 12.252,0 0,3.175 -8.703,0 0,3.3 7.658,0 0,3.176 -7.658,0 0,3.413 8.818,0 0,3.176 -12.367,0 z" /><path
     style="fill:#003a63"
     inkscape:connector-curvature="0"
     id="path21"
     d="m 77.316,84.113 c -2.463,0 -4.943,-0.855 -6.892,-2.597 l 2.108,-2.529 c 1.467,1.209 2.992,1.97 4.849,1.97 1.461,0 2.349,-0.577 2.349,-1.528 l 0,-0.046 c 0,-0.906 -0.559,-1.368 -3.275,-2.064 -3.271,-0.838 -5.383,-1.738 -5.383,-4.966 l 0,-0.049 c 0,-2.943 2.368,-4.893 5.686,-4.893 2.37,0 4.384,0.739 6.032,2.064 l -1.857,2.691 c -1.438,-0.997 -2.851,-1.603 -4.224,-1.603 -1.369,0 -2.086,0.628 -2.086,1.418 l 0,0.046 c 0,1.066 0.694,1.415 3.504,2.134 3.294,0.858 5.148,2.044 5.148,4.871 l 0,0.049 c 0,3.224 -2.462,5.032 -5.959,5.032 z" /><path
     style="fill:#003a63"
     inkscape:connector-curvature="0"
     id="path37"
     d="m 85.641,82.109 c 0,-0.425 0.291,-0.816 0.742,-0.816 0.394,0 0.585,0.291 0.585,0.568 0,0.203 -0.074,0.421 -0.191,0.536 0.496,0 0.729,-0.349 1.193,-2.545 l 1.076,-5.11 -1.427,0 0.179,-0.638 1.381,0 c 0.508,-2.49 1.643,-3.625 3.012,-3.64 0.975,-0.014 1.457,0.525 1.457,1.078 0,0.553 -0.354,1.033 -0.816,1.033 -0.363,0 -0.613,-0.234 -0.613,-0.626 0,-0.275 0.116,-0.597 0.352,-0.801 -0.087,-0.073 -0.235,-0.115 -0.421,-0.115 -1.006,0 -1.4,0.959 -1.747,2.575 l -0.116,0.495 1.849,0 -0.177,0.638 -1.79,0 -0.988,4.703 c -0.554,2.646 -1.529,3.464 -2.549,3.464 -0.685,0.001 -0.991,-0.378 -0.991,-0.799 z" /><path
     style="fill:#003a63"
     inkscape:connector-curvature="0"
     id="path39"
     d="m 97.792,76.564 c 0,2.183 -1.615,4.102 -3.49,4.102 -1.546,0 -2.416,-1.135 -2.416,-2.691 0,-2.182 1.613,-4.104 3.49,-4.104 1.529,0 2.416,1.135 2.416,2.693 z m -2.416,-2.111 c -1.483,0 -2.342,2.399 -2.342,3.986 0,1.136 0.522,1.631 1.251,1.631 1.485,0 2.359,-2.387 2.359,-3.986 10e-4,-1.136 -0.54,-1.631 -1.268,-1.631 z" /><path
     style="fill:#003a63"
     inkscape:connector-curvature="0"
     id="path41"
     d="m 103.376,73.871 c -0.871,0 -1.588,1.107 -2.475,2.969 l -0.117,-0.045 c 0.175,-0.538 0.321,-1.191 0.321,-1.701 0,-0.771 -0.333,-1.192 -0.917,-1.192 -0.618,0 -1.114,0.472 -1.581,1.302 l 0.508,0.237 0.002,-0.002 -0.025,-0.009 c 0,0 0.229,-0.405 0.497,-0.641 0.025,-0.025 0.05,-0.047 0.076,-0.064 0.015,-0.013 0.028,-0.019 0.045,-0.028 0.036,-0.022 0.071,-0.045 0.105,-0.056 0.017,-0.004 0.03,-0.007 0.047,-0.009 0.024,-0.007 0.053,-0.019 0.078,-0.019 0.278,0 0.409,0.219 0.118,1.339 l -1.224,4.585 1.177,0 c 0.965,-3.538 2.186,-5.341 2.779,-5.619 -0.042,0.525 0.219,0.83 0.613,0.83 0.437,0 0.802,-0.465 0.802,-1.034 0.001,-0.522 -0.334,-0.843 -0.829,-0.843 z" /><g
     id="g4220"
     transform="matrix(0.38531294,0,0,0.38531294,39.922723,35.572828)"><path
       style="fill:#003a63"
       id="path29-3"
       d="m -100.11271,138.47119 5.199998,0 12,15.8 0,-15.8 5.6,0 0,25.7 -4.8,0 -12.4,-16.3 0,16.3 -5.599998,0 0,-25.7 z"
       class="st2"
       inkscape:connector-curvature="0" /><path
       style="fill:#003a63"
       id="path31-6"
       d="m -71.812712,138.47119 19.3,0 0,5 -13.7,0 0,5.2 12.1,0 0,5 -12.1,0 0,5.4 13.9,0 0,5 -19.5,0 0,-25.6 z"
       class="st2"
       inkscape:connector-curvature="0" /><path
       style="fill:#003a63"
       id="path33-7"
       d="m -49.912712,138.47119 6,0 5.3,17.4 5.8,-17.5 4.8,0 5.8,17.5 5.3,-17.4 5.9,0 -8.7,25.8 -4.9,0 -5.8,-16.8 -5.8,16.8 -4.9,0 -8.8,-25.8 z"
       class="st2"
       inkscape:connector-curvature="0" /><g
       style="fill:#003a63"
       id="g35"
       transform="translate(-215.71271,103.87119)"><path
         style="fill:#003a63"
         id="path37-5"
         d="m 214.8,55.9 14.2,-16.4 -13.7,0 0,-4.9 20.9,0 0,4.3 -14.1,16.4 14.1,0 0,4.9 -21.4,0 0,-4.3 z"
         class="st2"
         inkscape:connector-curvature="0" /><path
         style="fill:#003a63"
         id="path39-3"
         d="m 240.9,34.6 19.3,0 0,5 -13.7,0 0,5.2 12.1,0 0,5 -12.1,0 0,5.4 13.9,0 0,5 -19.5,0 0,-25.6 z"
         class="st2"
         inkscape:connector-curvature="0" /><path
         style="fill:#003a63"
         id="path41-5"
         d="m 274.3,34.4 5.2,0 11,25.8 -5.9,0 -2.3,-5.8 -10.9,0 -2.3,5.8 -5.8,0 11,-25.8 z m 5.9,15.1 -3.4,-8.3 -3.4,8.3 6.8,0 z"
         class="st2"
         inkscape:connector-curvature="0" /><path
         style="fill:#003a63"
         id="path43"
         d="m 293.4,34.6 5.6,0 0,20.5 12.8,0 0,5.1 -18.4,0 0,-25.6 z"
         class="st2"
         inkscape:connector-curvature="0" /><path
         style="fill:#003a63"
         id="path45"
         d="m 325.8,34.4 5.2,0 11,25.8 -5.9,0 -2.3,-5.8 -10.9,0 -2.4,5.8 -5.8,0 11.1,-25.8 z m 5.9,15.1 -3.4,-8.3 -3.4,8.3 6.8,0 z"
         class="st2"
         inkscape:connector-curvature="0" /><path
         style="fill:#003a63"
         id="path47"
         d="m 344.9,34.6 5.2,0 12,15.8 0,-15.8 5.6,0 0,25.7 -4.8,0 -12.4,-16.3 0,16.3 -5.6,0 0,-25.7 z"
         class="st2"
         inkscape:connector-curvature="0" /><path
         style="fill:#003a63"
         id="path49"
         d="m 373.2,34.6 10,0 c 2,0 3.9,0.3 5.5,1 1.7,0.6 3.1,1.5 4.3,2.7 1.2,1.2 2.1,2.5 2.8,4.1 0.7,1.6 1,3.2 1,5 l 0,0.1 c 0,1.8 -0.3,3.5 -1,5.1 -0.7,1.6 -1.6,2.9 -2.8,4.1 -1.2,1.2 -2.6,2.1 -4.3,2.7 -1.7,0.7 -3.5,1 -5.5,1 l -10,0 0,-25.8 z m 10,20.5 c 1.2,0 2.2,-0.2 3.2,-0.5 1,-0.4 1.8,-0.9 2.5,-1.6 0.7,-0.7 1.2,-1.5 1.6,-2.4 0.4,-0.9 0.5,-2 0.5,-3.1 l 0,-0.1 c 0,-1.1 -0.2,-2.2 -0.5,-3.1 -0.4,-0.9 -0.9,-1.8 -1.6,-2.4 -0.7,-0.7 -1.5,-1.2 -2.5,-1.6 -1,-0.4 -2,-0.6 -3.2,-0.6 l -4.4,0 0,15.5 4.4,0 z"
         class="st2"
         inkscape:connector-curvature="0" /></g></g></svg>