<?xml version="1.0" encoding="utf-8"?>
<!-- Generator: Adobe Illustrator 14.0.0, SVG Export Plug-In . SVG Version: 6.00 Build 43363)  -->
<!DOCTYPE svg PUBLIC "-//W3C//DTD SVG 1.1//EN" "http://www.w3.org/Graphics/SVG/1.1/DTD/svg11.dtd">
<svg version="1.1" id="Layer_1" xmlns="http://www.w3.org/2000/svg" xmlns:xlink="http://www.w3.org/1999/xlink" x="0px" y="0px"
	 width="110px" height="105px" viewBox="0 0 110 105" enable-background="new 0 0 110 105" xml:space="preserve">
<g>
	<g>
		<path fill="#FFFFFF" d="M66.849,18.036C59.754,8.25,53.104,4.077,47.055,5.637L47.05,5.649C40.002-5.522,13.233,3.027,8.226,4.749
			c0,0-2.232,3.885-8.226,9.136l10.979,45.852c21.014-11.16,48.467-13.953,63.496-10.295c9.059,2.211,15.564,4.762,21.592,11.908
			l0.71-0.743C96.777,60.606,72.373,26.022,66.849,18.036z"/>
		<path fill="#DEB408" d="M66.849,18.036C59.754,8.25,53.104,4.077,47.055,5.637L47.05,5.649C40.002-5.522,13.233,3.027,8.226,4.749
			c0,0-2.232,3.885-8.226,9.136l10.979,45.852c21.014-11.16,48.467-13.953,63.496-10.295c9.059,2.211,15.564,4.762,21.592,11.908
			l0.71-0.743C96.777,60.606,72.373,26.022,66.849,18.036z M52.377,18.691c-9.963-4.144-28.942,0.822-38.272,3.739l-1.15-3.544
			C21.958,16.041,41.141,11.359,52.377,18.691z M12.657,17.99l-1.148-3.522c7.894-2.49,29.466-8.148,39.438,0.516
			C40.434,9.429,17.521,16.408,12.657,17.99z M53.136,22.343c-11.372-3.224-31.313,2.518-37.592,4.502l-1.143-3.516
			C30.912,18.281,44.135,17.968,53.136,22.343z M53.951,26.202c-12.166-2.349-31.863,3.452-36.968,5.067l-1.15-3.518
			C31.738,22.889,44.309,22.363,53.951,26.202z M54.453,30.164c-12.696-1.465-31.626,4.145-36.031,5.526l-1.15-3.519
			C28.343,28.838,41.813,26.074,54.453,30.164z M55.125,34.266c-12.933-0.798-30.978,4.516-35.262,5.849l-1.145-3.515
			C31.788,32.723,43.429,30.96,55.125,34.266z M55.167,38.515c-9.709-0.046-21.531,2.646-28.58,4.527
			c-0.789,0.206-1.575,0.429-2.39,0.656c-1.261,0.355-2.239,0.644-2.89,0.843l-1.15-3.527
			C32.637,37.226,43.251,35.607,55.167,38.515z M70.717,44.859l-1.878-3.105c3.852-1.38,6.929,0.107,10.824,2.48
			C76.894,43.332,73.895,43.346,70.717,44.859z M68.327,40.911l-1.787-2.966c3.545-1.483,7.059-0.299,10.67,2.109
			C74.411,39.073,71.657,39.159,68.327,40.911z M66.053,37.131l-1.954-3.235c4.067-1.472,7.361-0.008,11.174,2.866
			C72.235,35.365,69.73,35.273,66.053,37.131z M63.604,33.08l-1.841-3.044c3.622-1.273,7.448,0.099,11.143,2.757
			C70.053,31.599,66.954,31.453,63.604,33.08z M61.275,29.219l-1.921-3.185c3.876-1.303,7.973,0.464,11.718,3.379
			C68.039,27.9,64.806,27.588,61.275,29.219z M58.861,25.214l-1.894-3.139c0.182-0.069,0.354-0.142,0.536-0.198
			c4.259-1.321,7.712,0.91,11.696,4.594C65.685,24.144,62.882,23.503,58.861,25.214z M67.397,23.412
			c-3.479-2.574-6.195-3.712-10.178-2.415c-0.246,0.079-0.494,0.171-0.739,0.272l-1.854-3.078
			C59.483,16.416,63.176,19.154,67.397,23.412z M54.187,17.361v0.003l-0.05,0.02l-1.871-3.099l0.007-0.003
			c4.797-1.46,8.696,1.056,12.783,5.141C61.509,16.827,58.275,15.777,54.187,17.361z M63.102,16.078
			c-3.566-2.739-7.142-4.09-11.321-2.622l-0.007,0.006l-1.85-3.07l0.017-0.005C54.975,9.188,59.03,11.834,63.102,16.078z
			 M47.603,6.486c0.965-0.196,1.915-0.279,2.84-0.196c1.873,0.17,3.803,0.9,5.802,2.172c1.58,1.052,3.146,2.449,4.711,4.101
			C56.89,9.413,53.075,8.43,49.431,9.542l-0.015,0.011l-1.839-3.041L47.603,6.486z M48.807,10.954
			c-10.004-5.892-32.203,0.836-37.593,2.612l-1.144-3.529C17.07,7.79,39.974,1.069,48.807,10.954z M12.277,4.458
			c0-0.001,0.005-0.001,0.017-0.004h0.004c0.016-0.006,0.038-0.013,0.055-0.018c0,0,0.012-0.001,0.017-0.003
			c9.019-2.631,28.567-7.074,33.996,1.864c0.006,0.003,0.006,0.012,0.012,0.017l0.449,0.743c-9.54-6.466-31.67,0.298-37.047,2.086
			L8.626,5.602c0.774-0.264,2.042-0.673,3.65-1.142V4.458z M21.598,45.438c12.996-3.946,22.322-5.156,31.96-3.465
			C43.176,42.49,30.904,45.8,22.651,48.687L21.598,45.438z"/>
	</g>
	<path fill="#003A63" d="M9.07,83.884H1.348V67.645h7.534c3.318,0,5.365,1.647,5.365,4.195v0.05c0,1.833-0.98,2.854-2.134,3.505
		c1.876,0.72,3.036,1.81,3.036,3.988v0.046C15.149,82.397,12.735,83.884,9.07,83.884z M10.694,72.447
		c0-1.068-0.835-1.669-2.341-1.669h-3.53v3.433h3.294c1.581,0,2.577-0.514,2.577-1.718V72.447z M11.602,78.94
		c0-1.088-0.821-1.761-2.647-1.761H4.823v3.569H9.07c1.575,0,2.532-0.553,2.532-1.762V78.94z"/>
	<path fill="#003A63" d="M17.644,83.884V67.645h3.573v16.239H17.644z"/>
	<path fill="#003A63" d="M32.375,83.884h-7.729V67.645h7.533c3.326,0,5.366,1.647,5.366,4.195v0.05c0,1.833-0.979,2.854-2.134,3.505
		c1.877,0.72,3.037,1.81,3.037,3.988v0.046C38.447,82.397,36.034,83.884,32.375,83.884z M33.992,72.447
		c0-1.068-0.832-1.669-2.343-1.669h-3.523v3.433h3.295c1.577,0,2.571-0.514,2.571-1.718V72.447z M34.901,78.94
		c0-1.088-0.815-1.761-2.643-1.761h-4.133v3.569h4.249c1.574,0,2.526-0.553,2.526-1.762V78.94z"/>
	<path fill="#003A63" d="M41.095,83.884V67.645h3.576v12.993h8.101v3.246H41.095z"/>
	<path fill="#003A63" d="M55.41,83.884V67.645h12.252v3.175h-8.703v3.3h7.658v3.176h-7.658v3.413h8.818v3.176H55.41z"/>
	<path fill="#003A63" d="M77.316,84.113c-2.463,0-4.943-0.855-6.892-2.597l2.108-2.529c1.467,1.209,2.992,1.97,4.849,1.97
		c1.461,0,2.349-0.577,2.349-1.528v-0.046c0-0.906-0.559-1.368-3.275-2.064c-3.271-0.838-5.383-1.738-5.383-4.966v-0.049
		c0-2.943,2.368-4.893,5.686-4.893c2.37,0,4.384,0.739,6.032,2.064l-1.857,2.691c-1.438-0.997-2.851-1.603-4.224-1.603
		c-1.369,0-2.086,0.628-2.086,1.418v0.046c0,1.066,0.694,1.415,3.504,2.134c3.294,0.858,5.148,2.044,5.148,4.871v0.049
		C83.275,82.305,80.813,84.113,77.316,84.113z"/>
	<path fill="#003A63" d="M14.728,104.706l-1.466-3.588H6.492l-1.467,3.588H1.434L8.298,88.58h3.245l6.868,16.126H14.728z
		 M9.88,92.812l-2.128,5.192h4.249L9.88,92.812z"/>
	<path fill="#003A63" d="M32.702,104.706V94.254l-4.51,6.84h-0.088l-4.46-6.772v10.385h-3.481v-16.01h3.799l4.208,6.77l4.215-6.77
		h3.798v16.01H32.702z"/>
	<path fill="#003A63" d="M39.57,104.706v-16.01h12.055v3.133h-8.58v3.248h7.554v3.133h-7.554v3.362h8.696v3.134H39.57z"/>
	<path fill="#003A63" d="M64.164,104.706l-3.434-5.123h-2.773v5.123H54.44v-16.01h7.323c1.903,0,3.386,0.459,4.449,1.393
		c1.059,0.931,1.586,2.226,1.586,3.891v0.044c0,1.299-0.314,2.355-0.947,3.169c-0.635,0.814-1.459,1.413-2.483,1.797l3.912,5.717
		H64.164z M64.23,94.16c0-0.761-0.241-1.338-0.733-1.717c-0.483-0.384-1.165-0.573-2.032-0.573h-3.508v4.602h3.574
		c0.866,0,1.536-0.205,2.003-0.617c0.465-0.415,0.696-0.962,0.696-1.649V94.16z"/>
	<path fill="#003A63" d="M70.682,104.706v-16.01h3.525v16.01H70.682z"/>
	<path fill="#003A63" d="M90.544,103.312c-0.443,0.349-0.926,0.65-1.452,0.902c-0.527,0.252-1.101,0.446-1.729,0.573
		c-0.629,0.131-1.329,0.196-2.099,0.196c-1.178,0-2.268-0.216-3.271-0.643c-1.014-0.426-1.888-1.011-2.613-1.748
		c-0.732-0.742-1.302-1.616-1.719-2.617c-0.41-1.013-0.611-2.084-0.611-3.23v-0.044c0-1.148,0.201-2.218,0.611-3.215
		c0.417-1.001,0.986-1.88,1.719-2.635c0.726-0.756,1.609-1.348,2.626-1.782c1.024-0.435,2.158-0.651,3.391-0.651
		c0.747,0,1.434,0.06,2.054,0.183c0.607,0.119,1.176,0.288,1.675,0.504c0.507,0.212,0.972,0.472,1.397,0.776
		c0.428,0.308,0.82,0.642,1.188,1.008l-2.239,2.583c-0.63-0.56-1.263-1.006-1.913-1.325c-0.646-0.318-1.375-0.48-2.181-0.48
		c-0.672,0-1.296,0.127-1.87,0.39c-0.57,0.258-1.063,0.616-1.473,1.074c-0.411,0.455-0.727,0.987-0.964,1.59
		c-0.222,0.604-0.338,1.244-0.338,1.931v0.051c0,0.682,0.116,1.332,0.338,1.942c0.237,0.61,0.551,1.142,0.953,1.601
		c0.404,0.459,0.886,0.823,1.469,1.089c0.567,0.268,1.197,0.399,1.885,0.399c0.914,0,1.687-0.166,2.322-0.502
		c0.632-0.335,1.26-0.795,1.883-1.376l2.244,2.269C91.414,102.567,90.988,102.961,90.544,103.312z"/>
	<path fill="#003A63" d="M106.104,104.706l-1.466-3.588h-6.772l-1.465,3.588h-3.593l6.864-16.126h3.25l6.862,16.126H106.104z
		 M101.256,92.812l-2.13,5.192h4.257L101.256,92.812z"/>
	<path fill="#003A63" d="M85.641,82.109c0-0.425,0.291-0.816,0.742-0.816c0.394,0,0.585,0.291,0.585,0.568
		c0,0.203-0.074,0.421-0.191,0.536c0.496,0,0.729-0.349,1.193-2.545l1.076-5.11h-1.427l0.179-0.638h1.381
		c0.508-2.49,1.643-3.625,3.012-3.64c0.975-0.014,1.457,0.525,1.457,1.078s-0.354,1.033-0.816,1.033
		c-0.363,0-0.613-0.234-0.613-0.626c0-0.275,0.116-0.597,0.352-0.801c-0.087-0.073-0.235-0.115-0.421-0.115
		c-1.006,0-1.4,0.959-1.747,2.575l-0.116,0.495h1.849l-0.177,0.638h-1.79l-0.988,4.703c-0.554,2.646-1.529,3.464-2.549,3.464
		C85.947,82.909,85.641,82.53,85.641,82.109z"/>
	<path fill="#003A63" d="M97.792,76.564c0,2.183-1.615,4.102-3.49,4.102c-1.546,0-2.416-1.135-2.416-2.691
		c0-2.182,1.613-4.104,3.49-4.104C96.905,73.871,97.792,75.006,97.792,76.564z M95.376,74.453c-1.483,0-2.342,2.399-2.342,3.986
		c0,1.136,0.522,1.631,1.251,1.631c1.485,0,2.359-2.387,2.359-3.986C96.645,74.948,96.104,74.453,95.376,74.453z"/>
	<path fill="#003A63" d="M103.376,73.871c-0.871,0-1.588,1.107-2.475,2.969l-0.117-0.045c0.175-0.538,0.321-1.191,0.321-1.701
		c0-0.771-0.333-1.192-0.917-1.192c-0.618,0-1.114,0.472-1.581,1.302l0.508,0.237l0.002-0.002l-0.025-0.009
		c0,0,0.229-0.405,0.497-0.641c0.025-0.025,0.05-0.047,0.076-0.064c0.015-0.013,0.028-0.019,0.045-0.028
		c0.036-0.022,0.071-0.045,0.105-0.056c0.017-0.004,0.03-0.007,0.047-0.009c0.024-0.007,0.053-0.019,0.078-0.019
		c0.278,0,0.409,0.219,0.118,1.339l-1.224,4.585h1.177c0.965-3.538,2.186-5.341,2.779-5.619c-0.042,0.525,0.219,0.83,0.613,0.83
		c0.437,0,0.802-0.465,0.802-1.034C104.206,74.192,103.871,73.871,103.376,73.871z"/>
</g>
</svg>
